# xmcd
#
# Track frame offsets: 
#        150
#        49117
#        87231
#        99913
#        115830
#        130232
#        180032
#        200201
#        222248
#        263168
#        306730
#        319307
#
# Disc length: 4516 seconds
#
# Revision: 0
# Processed by: cddbd v1.5.2PL0 Copyright (c) Steve Scherf et al.
# Submitted via: ExactAudioCopy v0.95b4
#
DISCID=ac11a20c
DTITLE=Stevie Ray Vaughan - Out Of The Shadows
DYEAR=1984
DGENRE=Blues
TTITLE0=Voodoo Chile (Slight Return)
TTITLE1=Lost Your Good Thing Now
TTITLE2=Honey Bee
TTITLE3=Mary Had A Little Lamb
TTITLE4=Love Struck Baby
TTITLE5=Tin Pan Alley
TTITLE6=Cold Shot
TTITLE7=Couldn't Stand The Weather
TTITLE8=Texas Flood
TTITLE9=Lenny
TTITLE10=Stang's Swang
TTITLE11=Rude Mood
EXTD=
EXTT0=
EXTT1=
EXTT2=
EXTT3=
EXTT4=
EXTT5=
EXTT6=
EXTT7=
EXTT8=
EXTT9=
EXTT10=
EXTT11=
PLAYORDER=
